# xmcd CD database file
#
# Track frame offsets:
#	150
#	22170
#	41757
#	66957
#	86000
#	102230
#	115605
#	134132
#	152927
#	173855
#	193130
#	214432
#
# Disc length: 3243 seconds
#
# Revision: 0
# Processed by: cddbd v1.5.1PL2 Copyright (c) Steve Scherf et al.
# Submitted via: CDex 1.51
#
DISCID=b80ca90c
DTITLE=SENSHUKAI - ROCK MOVIE 1 Hero
DYEAR=1996
DGENRE=Rock
TTITLE0=AQUARIUS〜LET THE SUNSHINE IN/THE 5TH DIMENSION
TTITLE1=SPEED/BILLY IDOL
TTITLE2=NEUTRON DANCE/POINTER SISTERS
TTITLE3=SOMETHING REAL(INSIDE ME, INSIDE YOU)/MR.MISTER
TTITLE4=LOVE SOMEBODY/RICK SPRINGFIELD
TTITLE5=SOMEBODY TO LOVE/JEFFERSON AIRPLANE
TTITLE6=GHOSTBUSTERS/RAY PARKER JR.
TTITLE7=WHEN THE GOING GET TOUGH, THE TOUGH GET GOING/BILLY OCEAN
TTITLE8=GET TOGETHER/THE YOUNGBLOODS
TTITLE9=ALL ALONE ON CHIRISTMAS/DARLENE LOVE
TTITLE10=NEVER SHOULD'VE LET YOU GO/HI-FIVE
TTITLE11=ORIGINAL SIN(THEME FROM "THE SHADOW")/TAYLOR DAYNE
EXTD=YEAR: 1996
EXTT0=
EXTT1=
EXTT2=
EXTT3=
EXTT4=
EXTT5=
EXTT6=
EXTT7=
EXTT8=
EXTT9=
EXTT10=
EXTT11=
PLAYORDER=
